<svg width="28" height="29" viewBox="0 0 28 29" fill="none"
    xmlns="http://www.w3.org/2000/svg">
    <path fill-rule="evenodd" clip-rule="evenodd" d="M11.5759 25.943C7.1262 25.943 3.3252 25.2699 3.3252 22.5749C3.3252 19.8799 7.1017 17.4287 11.5759 17.4287C16.0255 17.4287 19.8265 19.8565 19.8265 22.5504C19.8265 25.2442 16.05 25.943 11.5759 25.943Z" stroke="white" stroke-width="1.5" stroke-linecap="round" stroke-linejoin="round"/>
    <path fill-rule="evenodd" clip-rule="evenodd" d="M11.5756 13.5853C14.4958 13.5853 16.8641 11.217 16.8641 8.2968C16.8641 5.37547 14.4958 3.0083 11.5756 3.0083C8.65548 3.0083 6.28714 5.37547 6.28714 8.2968C6.27664 11.2065 8.62864 13.5748 11.5383 13.5853H11.5756Z" stroke="white" stroke-width="1.5" stroke-linecap="round" stroke-linejoin="round"/>
    <path d="M22.3197 9.98389V14.6622" stroke="white" stroke-width="1.5" stroke-linecap="round" stroke-linejoin="round"/>
    <path d="M24.7072 12.3228H19.9355" stroke="white" stroke-width="1.5" stroke-linecap="round" stroke-linejoin="round"/>
</svg>
