<svg width="28" height="29" viewBox="0 0 28 29" fill="none" xmlns="http://www.w3.org/2000/svg">
<path fill-rule="evenodd" clip-rule="evenodd" d="M13.9997 11.5835C15.6107 11.5835 16.9163 12.8891 16.9163 14.5002C16.9163 16.1112 15.6107 17.4168 13.9997 17.4168C12.3886 17.4168 11.083 16.1112 11.083 14.5002C11.083 12.8891 12.3886 11.5835 13.9997 11.5835Z" stroke="white" stroke-width="1.5" stroke-linecap="round" stroke-linejoin="round"/>
<path fill-rule="evenodd" clip-rule="evenodd" d="M23.529 8.9587V8.9587C22.7315 7.56774 20.9661 7.09179 19.5863 7.89503C18.3861 8.59224 16.8861 7.71986 16.8861 6.32429C16.8861 4.71898 15.5932 3.41675 13.9994 3.41675V3.41675C12.4056 3.41675 11.1127 4.71898 11.1127 6.32429C11.1127 7.71986 9.61274 8.59224 8.41367 7.89503C7.03268 7.09179 5.26726 7.56774 4.46979 8.9587C3.67346 10.3497 4.146 12.1278 5.52698 12.9299C6.72605 13.6283 6.72605 15.3719 5.52698 16.0702C4.146 16.8735 3.67346 18.6517 4.46979 20.0415C5.26726 21.4324 7.03268 21.9084 8.41252 21.1063H8.41367C9.61274 20.4079 11.1127 21.2803 11.1127 22.6759V22.6759C11.1127 24.2812 12.4056 25.5834 13.9994 25.5834V25.5834C15.5932 25.5834 16.8861 24.2812 16.8861 22.6759V22.6759C16.8861 21.2803 18.3861 20.4079 19.5863 21.1063C20.9661 21.9084 22.7315 21.4324 23.529 20.0415C24.3265 18.6517 23.8528 16.8735 22.473 16.0702H22.4718C21.2727 15.3719 21.2727 13.6283 22.473 12.9299C23.8528 12.1278 24.3265 10.3497 23.529 8.9587Z" stroke="white" stroke-width="1.5" stroke-linecap="round" stroke-linejoin="round"/>
</svg>
